<svg xmlns="http://www.w3.org/2000/svg" width="200" height="200" viewBox="0 0 200 200">
  <defs>
    <linearGradient id="grad1" x1="0%" y1="0%" x2="100%" y2="100%">
      <stop offset="0%" style="stop-color:#6366f1;stop-opacity:0.8" />
      <stop offset="100%" style="stop-color:#4f46e5;stop-opacity:0.6" />
    </linearGradient>
  </defs>
  <circle cx="100" cy="100" r="100" fill="#1e293b" />
  <circle cx="100" cy="85" r="40" fill="url(#grad1)" />
  <path d="M100,135 C65,135 40,160 40,200 L160,200 C160,160 135,135 100,135 Z" fill="url(#grad1)" />
  <!-- Gafas -->
  <rect x="70" y="75" width="60" height="5" rx="2" ry="2" fill="white" />
  <circle cx="80" cy="75" r="10" fill="white" opacity="0.2" />
  <circle cx="120" cy="75" r="10" fill="white" opacity="0.2" />
  <rect x="75" y="75" width="10" height="2" fill="white" />
  <rect x="115" y="75" width="10" height="2" fill="white" />
  <!-- Cabello -->
  <path d="M60,85 C60,55 80,45 100,45 C120,45 140,55 140,85 L140,65 C140,45 120,35 100,35 C80,35 60,45 60,65 Z" fill="#94a3b8" />
</svg>