<svg xmlns="http://www.w3.org/2000/svg" width="200" height="200" viewBox="0 0 200 200">
  <defs>
    <linearGradient id="grad1" x1="0%" y1="0%" x2="100%" y2="100%">
      <stop offset="0%" style="stop-color:#6366f1;stop-opacity:0.8" />
      <stop offset="100%" style="stop-color:#4f46e5;stop-opacity:0.6" />
    </linearGradient>
  </defs>
  <circle cx="100" cy="100" r="100" fill="#1e293b" />
  <circle cx="100" cy="85" r="40" fill="url(#grad1)" />
  <path d="M100,135 C65,135 40,160 40,200 L160,200 C160,160 135,135 100,135 Z" fill="url(#grad1)" />
  <!-- Cabello largo -->
  <path d="M60,85 C60,55 80,45 100,45 C120,45 140,55 140,85 C140,85 150,120 150,140 C150,160 140,180 140,180 L60,180 C60,180 50,160 50,140 C50,120 60,85 60,85 Z" fill="#94a3b8" />
  <!-- Pendientes -->
  <circle cx="70" cy="95" r="5" fill="#fcd34d" />
  <circle cx="130" cy="95" r="5" fill="#fcd34d" />
</svg>